<svg width="25" height="25" viewBox="0 0 25 25" fill="none" xmlns="http://www.w3.org/2000/svg">
<path d="M3.61999 19.5314L2.82231 18.9283L2.82231 18.9283L3.61999 19.5314ZM4.92834 15.804L3.92834 15.7918V15.804H4.92834ZM4.9558 13.5503L5.9558 13.5625V13.5503H4.9558ZM21.3894 19.5495L22.1991 18.9625L22.1991 18.9625L21.3894 19.5495ZM20.1303 15.804L19.1303 15.7911V15.804H20.1303ZM20.1578 13.662L21.1578 13.6748V13.662H20.1578ZM17.1012 20.5939C17.1012 20.0416 16.6535 19.5939 16.1012 19.5939C15.5489 19.5939 15.1012 20.0416 15.1012 20.5939H17.1012ZM9.90122 20.5939C9.90122 20.0416 9.45351 19.5939 8.90122 19.5939C8.34894 19.5939 7.90122 20.0416 7.90122 20.5939H9.90122ZM2.57303 6.20124C2.36752 6.71387 2.6165 7.29603 3.12912 7.50153C3.64175 7.70704 4.22391 7.45806 4.42941 6.94544L2.57303 6.20124ZM7.14375 3.84924C7.62998 3.58731 7.81181 2.98082 7.54989 2.49459C7.28796 2.00837 6.68147 1.82654 6.19524 2.08846L7.14375 3.84924ZM18.7942 2.10329C18.3108 1.83621 17.7024 2.01159 17.4353 2.495C17.1683 2.97842 17.3437 3.58681 17.8271 3.85388L18.7942 2.10329ZM20.5691 6.92569C20.7691 7.44049 21.3486 7.69566 21.8634 7.49565C22.3782 7.29563 22.6334 6.71617 22.4333 6.20137L20.5691 6.92569ZM4.41767 20.1345C5.17201 19.1367 5.92834 17.6385 5.92834 15.804H3.92834C3.92834 17.08 3.39949 18.1649 2.82231 18.9283L4.41767 20.1345ZM5.92827 15.8162L5.95573 13.5625L3.95588 13.5382L3.92842 15.7918L5.92827 15.8162ZM22.1991 18.9625C21.6464 18.2002 21.1303 17.1028 21.1303 15.804H19.1303C19.1303 17.6371 19.8551 19.1369 20.5798 20.1364L22.1991 18.9625ZM21.1302 15.8168L21.1577 13.6748L19.1579 13.6492L19.1304 15.7912L21.1302 15.8168ZM21.1578 13.662C21.1578 8.86546 17.2866 4.96895 12.5012 4.96895V6.96895C16.1731 6.96895 19.1578 9.96105 19.1578 13.662H21.1578ZM20.9312 21.5939C21.691 21.5939 22.1679 21.0583 22.3602 20.6045C22.5519 20.152 22.5909 19.5031 22.1991 18.9625L20.5798 20.1364C20.4638 19.9763 20.5079 19.8496 20.5187 19.8243C20.53 19.7975 20.6399 19.5939 20.9312 19.5939V21.5939ZM5.9558 13.5503C5.9558 9.91105 8.89077 6.96895 12.5012 6.96895V4.96895C7.77724 4.96895 3.9558 8.81546 3.9558 13.5503H5.9558ZM4.07231 19.5939C4.20691 19.5939 4.31791 19.6458 4.38764 19.7018C4.45038 19.7522 4.47578 19.8009 4.48565 19.8249C4.49593 19.8499 4.5036 19.8822 4.50055 19.9263C4.49735 19.9728 4.47989 20.0522 4.41768 20.1345L2.82231 18.9283C2.41306 19.4696 2.44838 20.1291 2.63573 20.585C2.82337 21.0417 3.29991 21.5939 4.07231 21.5939V19.5939ZM20.9312 19.5939H4.07231V21.5939H20.9312V19.5939ZM15.1012 20.5939C15.1012 21.8458 13.9989 22.9689 12.5012 22.9689V24.9689C14.98 24.9689 17.1012 23.07 17.1012 20.5939H15.1012ZM12.5012 22.9689C11.0035 22.9689 9.90122 21.8458 9.90122 20.5939H7.90122C7.90122 23.07 10.0225 24.9689 12.5012 24.9689V22.9689ZM13.9012 3.56895C13.9012 4.34214 13.2744 4.96895 12.5012 4.96895V6.96895C14.379 6.96895 15.9012 5.44671 15.9012 3.56895H13.9012ZM12.5012 4.96895C11.728 4.96895 11.1012 4.34214 11.1012 3.56895H9.10122C9.10122 5.44671 10.6235 6.96895 12.5012 6.96895V4.96895ZM11.1012 3.56895C11.1012 2.79575 11.728 2.16895 12.5012 2.16895V0.168945C10.6235 0.168945 9.10122 1.69118 9.10122 3.56895H11.1012ZM12.5012 2.16895C13.2744 2.16895 13.9012 2.79575 13.9012 3.56895H15.9012C15.9012 1.69118 14.379 0.168945 12.5012 0.168945V2.16895ZM4.42941 6.94544C4.96424 5.61133 5.91619 4.51051 7.14375 3.84924L6.19524 2.08846C4.52818 2.98649 3.27027 4.46197 2.57303 6.20124L4.42941 6.94544ZM17.8271 3.85388C19.0906 4.55196 20.0664 5.63183 20.5691 6.92569L22.4333 6.20137C21.7488 4.43948 20.4372 3.01098 18.7942 2.10329L17.8271 3.85388Z" fill="#333333"/>
</svg>
