<svg width="19" height="20" viewBox="0 0 19 20" fill="none" xmlns="http://www.w3.org/2000/svg">
<path d="M14.8891 7.97875H16.9256C17.488 7.97875 17.9439 8.43464 17.9439 8.99701L17.9439 16.1614C17.9439 17.266 17.0485 18.1614 15.9439 18.1614L8.77949 18.1614C8.21711 18.1614 7.76122 17.7055 7.76122 17.1432V15.1066M9.79776 1.86914L3.68815 1.86914C2.5634 1.86914 1.65161 2.78093 1.65161 3.90568L1.65161 10.0153C1.65161 11.14 2.5634 12.0518 3.68815 12.0518L9.79775 12.0518C10.9225 12.0518 11.8343 11.14 11.8343 10.0153L11.8343 3.90568C11.8343 2.78093 10.9225 1.86914 9.79776 1.86914Z" stroke="white" stroke-width="2" stroke-linecap="round"/>
</svg>
