<svg width="25" height="25" viewBox="0 0 25 25" fill="none" xmlns="http://www.w3.org/2000/svg">
<path d="M8.18662 11.0946L5.95316 13.328C5.11903 14.1621 4.63935 15.2971 4.64811 16.4899C4.65688 17.6827 5.12606 18.8246 5.99978 19.6714C6.84646 20.5451 7.98859 21.0143 9.18121 21.023C10.401 21.032 11.5091 20.5793 12.3433 19.7452L14.5768 17.5117M17.4296 14.7135L19.663 12.48C20.4972 11.6459 20.9769 10.5109 20.9681 9.31811C20.9593 8.12529 20.4901 6.98341 19.6164 6.13668C18.7699 5.29019 17.628 4.82098 16.4352 4.81221C15.2424 4.80345 14.1073 5.2559 13.2731 6.09006L11.0396 8.32351M9.42121 16.2312L16.1216 9.53082" stroke="black" stroke-width="2" stroke-linecap="round" stroke-linejoin="round"/>
</svg>
