<svg width="25" height="25" viewBox="0 0 25 25" fill="none" xmlns="http://www.w3.org/2000/svg">
<path d="M6.6624 21.3037V15.9037C6.6624 15.241 7.19966 14.7037 7.8624 14.7037H16.2624C16.9251 14.7037 17.4624 15.241 17.4624 15.9037V21.9037M15.0624 8.10371L7.8624 8.10371C7.19966 8.10371 6.6624 7.56645 6.6624 6.90371L6.6624 3.30371M21.0599 7.50118L17.4649 3.90624C17.0791 3.52045 16.5559 3.30371 16.0103 3.30371H4.51955C3.3834 3.30371 2.4624 4.22471 2.4624 5.36085V20.4466C2.4624 21.5827 3.3834 22.5037 4.51955 22.5037H19.6053C20.7414 22.5037 21.6624 21.5827 21.6624 20.4466V8.9558C21.6624 8.41021 21.4457 7.88697 21.0599 7.50118Z" stroke="black" stroke-width="2" stroke-linecap="round"/>
</svg>
