<svg width="26" height="26" viewBox="0 0 26 26" fill="none" xmlns="http://www.w3.org/2000/svg">
<path opacity="0.2" d="M13 26C20.1797 26 26 20.1797 26 13C26 5.8203 20.1797 0 13 0C5.8203 0 0 5.8203 0 13C0 20.1797 5.8203 26 13 26Z" fill="black"/>
<path fill-rule="evenodd" clip-rule="evenodd" d="M5.19385 19.4213L13.1551 11.0836L21.1938 19.5L13.1909 6.5L5.19385 19.4213ZM14.3103 14.3957H14.3003L13.1013 12.997L11.8213 14.3957H14.3003L14.3103 14.4074V14.3957ZM9.51089 16.6901H16.6802L15.2274 15.2128L10.9218 15.2312L9.51065 16.6722L9.51089 16.6901Z" fill="#333333"/>
</svg>
