<svg width="32" height="33" viewBox="0 0 32 33" fill="none" xmlns="http://www.w3.org/2000/svg">
<path opacity="0.2" d="M16.0051 32.5166C24.8417 32.5166 32.0051 25.3532 32.0051 16.5166C32.0051 7.68005 24.8417 0.516602 16.0051 0.516602C7.16857 0.516602 0.00512695 7.68005 0.00512695 16.5166C0.00512695 25.3532 7.16857 32.5166 16.0051 32.5166Z" fill="#F70000"/>
<path fill-rule="evenodd" clip-rule="evenodd" d="M6.39783 24.4197L16.1963 14.158L26.0901 24.5166L16.2403 8.5166L6.39783 24.4197ZM17.6181 18.2344H17.6058L16.1301 16.5129L14.5547 18.2344H17.6058L17.6181 18.2488V18.2344ZM11.7111 21.0583H20.5349L18.7468 19.24L13.4477 19.2627L11.7108 21.0363L11.7111 21.0583Z" fill="#F70000"/>
</svg>
