<svg width="65" height="65" viewBox="0 0 65 65" fill="none" xmlns="http://www.w3.org/2000/svg">
<path opacity="0.2" d="M32.1316 64.2632C49.8774 64.2632 64.2632 49.8774 64.2632 32.1316C64.2632 14.3858 49.8774 0 32.1316 0C14.3858 0 0 14.3858 0 32.1316C0 49.8774 14.3858 64.2632 32.1316 64.2632Z" fill="#C72625"/>
<path d="M46.2734 24.5745V30.2588L46.2057 30.2195V32.542V35.6707V37.9932V40.3902L42.455 38.271V35.8279V33.5054V30.3767V28.0542V25.5772V25.4986V22.3699L39.745 20.8062V23.9349V24.0122V26.4891V28.8116V31.9403V34.2628V36.7384L35.9943 34.6192V32.0975V29.775V26.6463V24.3238L35.9266 24.2845V18.6016L33.2166 17.0366V22.7208V25.042V28.1707V30.4945V36.2398L35.9266 37.771L39.745 39.9295L42.455 41.462L46.2734 43.6205L48.9835 45.1517V39.5975V37.275V34.1449V31.8225V26.1395L46.2734 24.5745Z" fill="#FF0200"/>
<path d="M29.1123 18.6016L25.2939 20.8062L22.5839 22.3699L18.7655 24.5745L16.0554 26.1395V32.3428V34.6653V37.794V40.1165V45.1517L18.7655 43.6205V38.5514V36.2303L22.5839 34.0257L25.2939 32.4607L29.1123 30.2561V27.126L25.2939 29.3306L22.5839 30.8956L18.7655 33.1002V30.7777V27.7046L22.5839 25.5L25.2939 23.9363L29.1123 21.7317V24.8048L31.8223 23.2398V17.0366L29.1123 18.6016Z" fill="#FF0200"/>
</svg>
