<svg width="34" height="33" viewBox="0 0 34 33" fill="none" xmlns="http://www.w3.org/2000/svg">
<path d="M0 16.5166C0 7.68005 7.16344 0.516602 16 0.516602H17.1282C25.9647 0.516602 33.1282 7.68005 33.1282 16.5166V16.5166C33.1282 25.3532 25.9648 32.5166 17.1282 32.5166H16C7.16346 32.5166 0 25.3532 0 16.5166V16.5166Z" fill="#26A17D"/>
<path d="M18.0793 14.9522V13.0361H22.2571V10.1167H10.8809V13.0361H15.0592V14.9506C11.6635 15.1142 9.11023 15.8195 9.11023 16.6644C9.11023 17.5094 11.6647 18.2147 15.0592 18.3793V24.5167H18.0803V18.3788C21.4699 18.2147 24.0179 17.5099 24.0179 16.6657C24.0179 15.8216 21.4699 15.1168 18.0803 14.9527L18.0793 14.9522ZM18.0803 17.859V17.8574C17.9951 17.8631 17.5571 17.8906 16.582 17.8906C15.8024 17.8906 15.2539 17.8675 15.0606 17.8569V17.8595C12.0606 17.7201 9.8213 17.1722 9.8213 16.5166C9.8213 15.861 12.0609 15.3138 15.0606 15.1742V17.3136C15.2571 17.3278 15.8191 17.3626 16.5948 17.3626C17.5264 17.3626 17.9948 17.3219 18.0808 17.3136V15.1742C21.0749 15.3141 23.3091 15.8625 23.3091 16.5158C23.3091 17.1691 21.0739 17.7178 18.0808 17.8577" fill="white"/>
</svg>
