<svg width="161" height="161" viewBox="0 0 161 161" fill="none" xmlns="http://www.w3.org/2000/svg">
<path d="M96.3065 17.609C108.278 20.8168 116.191 31.599 116.286 43.4178C121.065 47.233 123.523 51.2497 122.602 54.6869C122.601 54.6878 122.601 54.6885 122.601 54.6894L119.559 66.0425C118.693 69.2746 114.984 71.4569 109.517 72.4661L102.236 99.6385C106.466 103.246 108.587 106.99 107.721 110.222C107.721 110.223 107.72 110.224 107.72 110.225L104.678 121.578C103.617 125.537 98.2914 127.92 90.6942 128.502C84.1072 135.015 74.3403 137.962 64.747 135.391C55.1538 132.821 48.1691 125.385 45.7206 116.452C39.4322 112.149 36.0116 107.422 37.0723 103.463L40.115 92.1073C40.9811 88.8752 44.6899 86.693 50.1567 85.6837L57.4375 58.5114C53.2076 54.9039 51.0869 51.1597 51.953 47.9276L54.9957 36.572C55.9167 33.1347 60.0531 30.8848 66.0999 29.9706C72.0914 19.7824 84.3348 14.4011 96.3065 17.609ZM97.2206 14.1978C93.9101 13.3107 90.5126 12.9858 87.1228 13.2323C83.8462 13.4705 80.6419 14.2362 77.5989 15.508C74.5896 16.7657 71.8146 18.4861 69.3511 20.6211C67.2713 22.4235 65.4571 24.4843 63.9429 26.7625C61.1471 27.3175 58.7673 28.1589 56.852 29.2712C53.371 31.2928 52.0662 33.8601 51.5846 35.6578L48.5418 47.0134C47.8889 49.4501 48.2773 52.12 49.665 54.7342C50.5409 56.3844 51.8173 58.0376 53.4717 59.6671L47.3001 82.6998C45.0526 83.2838 43.1204 84.0773 41.5369 85.0685C39.028 86.6388 37.3567 88.7567 36.7039 91.1933L33.6611 102.549C32.2761 107.718 35.4757 113.399 42.6856 118.633C44.1479 123.193 46.6736 127.373 50.0401 130.787C53.8277 134.628 58.5972 137.399 63.833 138.802C69.0689 140.205 74.5852 140.19 79.7856 138.757C84.4079 137.484 88.6854 135.127 92.2321 131.908C101.093 130.981 106.704 127.661 108.089 122.492L111.131 111.139C111.785 108.699 111.397 106.03 110.009 103.415C109.133 101.765 107.857 100.112 106.202 98.4823L112.374 75.4496C114.621 74.8655 116.553 74.072 118.137 73.0809C120.646 71.5106 122.317 69.3926 122.97 66.9561L126.012 55.603C126.495 53.8028 126.648 50.9269 124.644 47.4358C123.542 45.515 121.902 43.5963 119.758 41.7178C119.586 38.9876 119.045 36.2959 118.145 33.6951C117.079 30.6144 115.536 27.737 113.559 25.1431C111.559 22.52 109.167 20.2548 106.449 18.4103C103.636 16.5021 100.531 15.0848 97.2206 14.1978Z" fill="#1A1A1A"/>
<path d="M64.7456 135.392C79.127 139.245 93.9092 130.711 97.7627 116.329L45.6831 102.375C41.8298 116.756 50.3643 131.538 64.7456 135.392Z" fill="url(#paint0_linear_213_28852)"/>
<path d="M91.6477 105.916C86.8291 103.28 80.9506 100.927 74.4477 99.1849C67.9448 97.4425 61.6775 96.5404 56.1864 96.4146L40.1141 92.108L37.0713 103.464C35.0978 110.829 48.6321 120.855 67.3008 125.857C85.9695 130.86 102.704 128.944 104.677 121.579L107.72 110.223L91.6477 105.916Z" fill="url(#paint1_linear_213_28852)"/>
<path d="M70.3435 114.502C89.0123 119.504 105.746 117.588 107.72 110.223C109.693 102.858 96.1593 92.8315 77.4904 87.8292C58.8216 82.8269 42.0876 84.7426 40.114 92.1081C38.1405 99.4735 51.6747 109.5 70.3435 114.502Z" fill="url(#paint2_linear_213_28852)"/>
<path opacity="0.5" d="M70.5029 113.907C52.0859 108.973 38.6671 99.1487 40.2033 91.8133C40.1713 91.9106 40.1408 92.0086 40.1143 92.1078C38.1407 99.4733 51.675 109.499 70.3437 114.502C89.0124 119.504 105.747 117.588 107.72 110.223C107.747 110.123 107.769 110.023 107.79 109.923C105.453 117.044 88.9201 118.842 70.5029 113.907Z" fill="white"/>
<path d="M71.7229 109.351C86.1043 113.205 98.9033 112.072 100.31 106.822C101.717 101.571 91.1991 94.1908 76.8177 90.3373C62.4363 86.4839 49.6373 87.6164 48.2304 92.867C46.8235 98.1176 57.3415 105.498 71.7229 109.351Z" fill="#BE73FF"/>
<path d="M72.1701 107.685C84.8824 111.091 96.1669 110.198 97.3746 105.691C98.5823 101.184 89.256 94.7687 76.5436 91.3624C63.8313 87.9561 52.5468 88.8487 51.3391 93.356C50.1314 97.8632 59.4577 104.278 72.1701 107.685Z" fill="url(#paint3_linear_213_28852)"/>
<path d="M84.3258 62.3203C73.5988 59.446 62.5733 65.8117 59.6991 76.5386C56.8249 87.2652 63.1904 98.291 73.9173 101.165C84.644 104.039 95.6695 97.6738 98.5438 86.947C101.418 76.2201 95.0525 65.1945 84.3258 62.3203ZM75.4268 95.532C67.8111 93.4914 63.2917 85.6635 65.3323 78.0478C67.3729 70.4323 75.2009 65.9128 82.8165 67.9533C90.4321 69.9939 94.9514 77.8218 92.9108 85.4375C90.8702 93.0531 83.0424 97.5726 75.4268 95.532Z" fill="#441F00"/>
<path d="M83.6334 73.128L84.2571 76.2583C84.4097 77.0243 84.9294 77.6663 85.647 77.9747L88.5792 79.2356C90.3861 80.0126 90.5178 82.5243 88.8019 83.4858L86.0175 85.0463C85.3362 85.4281 84.8863 86.1208 84.8147 86.8986L84.5217 90.077C84.3411 92.0355 81.993 92.9368 80.5483 91.6021L78.2038 89.4363C77.6301 88.9063 76.8324 88.6925 76.0704 88.8646L72.9571 89.5681C71.0384 90.0015 69.4557 88.047 70.2786 86.2605L71.6141 83.3615C71.9408 82.652 71.8976 81.8273 71.4985 81.1559L69.8674 78.4123C68.8623 76.7216 70.2321 74.6122 72.1854 74.8429L75.3554 75.217C76.131 75.3086 76.9021 75.0127 77.4172 74.4256L79.5225 72.0265C80.8197 70.548 83.2491 71.199 83.6334 73.128Z" fill="#441F00"/>
<path opacity="0.2" d="M62.5132 39.5663L48.2311 92.8676C46.8242 98.1182 57.3421 105.498 71.7236 109.352C86.1051 113.205 98.904 112.073 100.311 106.822L114.593 53.521L62.5132 39.5663Z" fill="#5906FF"/>
<path opacity="0.5" d="M64.5152 101.812C62.7761 101.326 60.3987 100.462 57.861 98.8697C55.1844 97.1902 53.305 95.3127 52.0956 93.9028C54.2798 85.7513 56.4639 77.5999 58.6481 69.4483C59.0069 68.1094 60.5726 67.4964 61.7297 68.2595C62.7836 68.9546 63.9812 69.6588 65.3241 70.3228C67.1435 71.2221 68.863 71.8662 70.3914 72.3325C71.4378 72.6517 72.0333 73.7537 71.7501 74.8105L64.5152 101.812Z" fill="url(#paint4_linear_213_28852)"/>
<path opacity="0.5" d="M96.2093 104.978L91.0349 105.752L98.1647 79.1434C98.4536 78.0654 99.4479 77.3289 100.563 77.3668C102.106 77.4193 103.198 78.8941 102.799 80.3851L96.2091 104.978L96.2093 104.978Z" fill="url(#paint5_linear_213_28852)"/>
<path d="M64.5772 73.2645C65.0711 72.4455 64.4196 71.1472 63.122 70.3646C61.8244 69.5821 60.3721 69.6116 59.8782 70.4306C59.3843 71.2496 60.0358 72.548 61.3334 73.3305C62.631 74.1131 64.0833 74.0835 64.5772 73.2645Z" fill="white"/>
<path d="M68.136 74.6538C67.7901 75.2274 67.0446 75.4119 66.471 75.0661C65.8974 74.7202 65.7129 73.9747 66.0587 73.4011C66.4045 72.8275 67.1501 72.643 67.7237 72.9888C68.2972 73.3348 68.4818 74.0802 68.136 74.6538Z" fill="white"/>
<path d="M106.529 50.3805C101.71 47.7437 95.8314 45.3915 89.3286 43.649C82.8257 41.9066 76.5584 41.0045 71.0673 40.8787L54.9949 36.5721L51.9522 47.9279C49.9786 55.2934 63.5129 65.3195 82.1816 70.3217C100.85 75.324 117.584 73.4083 119.558 66.0428L122.601 54.6871L106.529 50.3805Z" fill="url(#paint6_linear_213_28852)"/>
<path d="M85.2243 58.966C103.893 63.9683 120.627 62.0526 122.601 54.6871C124.574 47.3217 111.04 37.2956 92.3713 32.2933C73.7024 27.291 56.9685 29.2067 54.9949 36.5722C53.0213 43.9377 66.5555 53.9637 85.2243 58.966Z" fill="url(#paint7_linear_213_28852)"/>
<path opacity="0.5" d="M85.4147 58.2562C67.0467 53.3345 53.6497 43.5498 55.1022 36.2205C55.0628 36.3364 55.0268 36.4536 54.995 36.5723C53.0214 43.9377 66.5557 53.9638 85.2244 58.9661C103.893 63.9683 120.627 62.0526 122.601 54.6872C122.633 54.5685 122.66 54.449 122.684 54.329C120.277 61.4025 103.783 63.1779 85.4147 58.2562Z" fill="white"/>
<path d="M115.368 50.6254C119.221 36.2444 110.687 21.4627 96.3058 17.6093C81.9249 13.7559 67.1428 22.29 63.289 36.6708C63.289 36.6711 63.2889 36.6714 63.2888 36.6717C61.8819 41.9223 72.3998 49.3026 86.7811 53.156C101.163 57.0096 113.961 55.877 115.368 50.6264C115.368 50.6261 115.368 50.6257 115.368 50.6254Z" fill="url(#paint8_linear_213_28852)"/>
<path opacity="0.5" d="M95.869 19.2395C109.85 22.9859 118.302 37.0617 115.221 51.0562C115.278 50.9157 115.329 50.7733 115.368 50.6264C115.368 50.6261 115.368 50.6257 115.368 50.6254C119.221 36.2444 110.687 21.4627 96.3058 17.6093C81.9249 13.7559 67.1428 22.29 63.289 36.6708C63.289 36.6711 63.2889 36.6714 63.2888 36.6717C63.2496 36.818 63.2229 36.9666 63.2021 37.1161C67.5313 23.4567 81.8881 15.4934 95.869 19.2395Z" fill="white"/>
<path opacity="0.5" d="M110.061 35.8959C111.795 33.9627 110.513 29.9862 107.199 27.0142C103.885 24.0422 99.7932 23.2001 98.0595 25.1333C96.3258 27.0665 97.607 31.043 100.921 34.015C104.235 36.987 108.327 37.8291 110.061 35.8959Z" fill="white"/>
<path opacity="0.5" d="M94.8813 24.4772C96.0691 23.6976 96.4 22.1027 95.6204 20.915C94.8408 19.7272 93.2459 19.3963 92.0581 20.1759C90.8704 20.9555 90.5395 22.5504 91.3191 23.7382C92.0987 24.926 93.6936 25.2568 94.8813 24.4772Z" fill="white"/>
<path opacity="0.1" d="M66.378 40.6017C67.3632 40.8656 68.3759 40.281 68.6399 39.2957C68.9039 38.3105 68.3192 37.2978 67.334 37.0338C66.3487 36.7698 65.336 37.3545 65.072 38.3397C64.808 39.325 65.3927 40.3377 66.378 40.6017Z" fill="black"/>
<path opacity="0.1" d="M70.5015 42.5202C70.3499 43.0862 69.7681 43.4222 69.202 43.2705C68.6359 43.1188 68.3 42.5371 68.4517 41.971C68.6034 41.4049 69.1851 41.069 69.7512 41.2207C70.3174 41.3724 70.6532 41.9541 70.5015 42.5202Z" fill="black"/>
<defs>
<linearGradient id="paint0_linear_213_28852" x1="64.7457" y1="135.392" x2="71.723" y2="109.352" gradientUnits="userSpaceOnUse">
<stop offset="0.4777" stop-color="#994300"/>
<stop offset="0.6299" stop-color="#9E4800"/>
<stop offset="0.8206" stop-color="#AB5800"/>
<stop offset="1" stop-color="#BE6D00"/>
</linearGradient>
<linearGradient id="paint1_linear_213_28852" x1="37.0713" y1="103.464" x2="104.677" y2="121.579" gradientUnits="userSpaceOnUse">
<stop stop-color="#FFF57F"/>
<stop offset="0.0281" stop-color="#F6E36E"/>
<stop offset="0.0868" stop-color="#E7C451"/>
<stop offset="0.1533" stop-color="#DAA837"/>
<stop offset="0.2285" stop-color="#D09223"/>
<stop offset="0.3163" stop-color="#C88113"/>
<stop offset="0.4249" stop-color="#C27608"/>
<stop offset="0.5772" stop-color="#BF6F02"/>
<stop offset="1" stop-color="#BE6D00"/>
</linearGradient>
<linearGradient id="paint2_linear_213_28852" x1="70.3436" y1="114.502" x2="77.4905" y2="87.8292" gradientUnits="userSpaceOnUse">
<stop stop-color="#FFF57F"/>
<stop offset="0.025" stop-color="#FBED78"/>
<stop offset="0.1698" stop-color="#E9C653"/>
<stop offset="0.3197" stop-color="#D9A635"/>
<stop offset="0.4738" stop-color="#CD8D1E"/>
<stop offset="0.634" stop-color="#C57B0D"/>
<stop offset="0.8039" stop-color="#C07003"/>
<stop offset="1" stop-color="#BE6D00"/>
</linearGradient>
<linearGradient id="paint3_linear_213_28852" x1="72.1701" y1="107.685" x2="76.5436" y2="91.3625" gradientUnits="userSpaceOnUse">
<stop offset="0.1295" stop-color="#BE6D00"/>
<stop offset="0.2609" stop-color="#C07205"/>
<stop offset="0.4146" stop-color="#C78012"/>
<stop offset="0.5796" stop-color="#D29828"/>
<stop offset="0.7524" stop-color="#E2B846"/>
<stop offset="0.9297" stop-color="#F6E26D"/>
<stop offset="1" stop-color="#FFF57F"/>
</linearGradient>
<linearGradient id="paint4_linear_213_28852" x1="55.7494" y1="98.0998" x2="68.2563" y2="71.2786" gradientUnits="userSpaceOnUse">
<stop stop-color="white"/>
<stop offset="0.7188" stop-color="white"/>
</linearGradient>
<linearGradient id="paint5_linear_213_28852" x1="90.8276" y1="105.655" x2="103.483" y2="78.5153" gradientUnits="userSpaceOnUse">
<stop stop-color="white"/>
<stop offset="0.7188" stop-color="white"/>
</linearGradient>
<linearGradient id="paint6_linear_213_28852" x1="51.9521" y1="47.9279" x2="119.558" y2="66.0428" gradientUnits="userSpaceOnUse">
<stop stop-color="#FFF57F"/>
<stop offset="0.0206" stop-color="#FAEA74"/>
<stop offset="0.0904" stop-color="#EAC855"/>
<stop offset="0.1683" stop-color="#DCAC3B"/>
<stop offset="0.2549" stop-color="#D19525"/>
<stop offset="0.3541" stop-color="#C88314"/>
<stop offset="0.4731" stop-color="#C27609"/>
<stop offset="0.6325" stop-color="#BF6F02"/>
<stop offset="1" stop-color="#BE6D00"/>
</linearGradient>
<linearGradient id="paint7_linear_213_28852" x1="85.2244" y1="58.9659" x2="92.3714" y2="32.2933" gradientUnits="userSpaceOnUse">
<stop stop-color="#FFF57F"/>
<stop offset="0.025" stop-color="#FBED78"/>
<stop offset="0.1698" stop-color="#E9C653"/>
<stop offset="0.3197" stop-color="#D9A635"/>
<stop offset="0.4738" stop-color="#CD8D1E"/>
<stop offset="0.634" stop-color="#C57B0D"/>
<stop offset="0.8039" stop-color="#C07003"/>
<stop offset="1" stop-color="#BE6D00"/>
</linearGradient>
<linearGradient id="paint8_linear_213_28852" x1="86.7812" y1="53.1561" x2="96.3059" y2="17.6092" gradientUnits="userSpaceOnUse">
<stop stop-color="#BE6D00"/>
<stop offset="0.1339" stop-color="#C27407"/>
<stop offset="0.3344" stop-color="#CB891A"/>
<stop offset="0.5767" stop-color="#DBAA39"/>
<stop offset="0.8493" stop-color="#F1D864"/>
<stop offset="1" stop-color="#FFF57F"/>
</linearGradient>
</defs>
</svg>
