<svg width="161" height="161" viewBox="0 0 161 161" fill="none" xmlns="http://www.w3.org/2000/svg">
<path d="M96.4854 21.4508C108.518 24.675 116.471 35.5123 116.566 47.3915C121.37 51.2261 123.84 55.2633 122.915 58.7181C122.914 58.719 122.914 58.7199 122.914 58.7207L119.856 70.1317C118.986 73.3803 115.258 75.5739 109.763 76.5883L102.445 103.899C106.697 107.525 108.828 111.289 107.958 114.537C107.958 114.538 107.957 114.539 107.957 114.54L104.9 125.951C103.833 129.93 98.4802 132.325 90.8443 132.91C84.2236 139.456 74.4068 142.418 64.7645 139.835C55.1223 137.251 48.1019 129.777 45.641 120.798C39.3205 116.473 35.8823 111.722 36.9485 107.743L40.0068 96.3295C40.8773 93.0809 44.605 90.8875 50.0997 89.8731L57.4176 62.5624C53.1661 58.9366 51.0346 55.173 51.9051 51.9244L54.9634 40.5108C55.8891 37.056 60.0466 34.7946 66.1243 33.8757C72.1465 23.6356 84.4525 18.2266 96.4854 21.4508ZM97.404 18.0224C94.0766 17.1308 90.6619 16.8042 87.2547 17.052C83.9614 17.2914 80.7407 18.061 77.6821 19.3393C74.6575 20.6035 71.8684 22.3326 69.3922 24.4785C67.3018 26.2901 65.4784 28.3614 63.9564 30.6513C61.1463 31.2091 58.7542 32.0548 56.8293 33.1728C53.3307 35.2048 52.0191 37.7851 51.5349 39.592L48.4767 51.0056C47.8204 53.4548 48.2108 56.1383 49.6056 58.7658C50.486 60.4244 51.7689 62.0861 53.4317 63.7239L47.2286 86.8743C44.9696 87.4613 43.0278 88.2589 41.436 89.255C38.9142 90.8333 37.2345 92.9621 36.5783 95.4111L33.5199 106.825C32.1279 112.02 35.3438 117.73 42.5905 122.991C44.0602 127.575 46.5989 131.776 49.9826 135.207C53.7895 139.068 58.5834 141.853 63.846 143.263C69.1085 144.673 74.653 144.658 79.88 143.218C84.5259 141.939 88.8253 139.569 92.3901 136.334C101.296 135.402 106.936 132.065 108.328 126.87L111.386 115.458C112.043 113.007 111.652 110.323 110.258 107.696C109.377 106.037 108.094 104.375 106.431 102.737L112.634 79.5874C114.893 79.0004 116.835 78.2029 118.427 77.2067C120.949 75.6283 122.629 73.4996 123.285 71.0506L126.342 59.6395C126.827 57.8301 126.982 54.9395 124.968 51.4304C123.86 49.4998 122.211 47.5713 120.056 45.6832C119.883 42.9391 119.34 40.2336 118.435 37.6195C117.364 34.523 115.813 31.631 113.825 29.0239C111.816 26.3874 109.411 24.1106 106.679 22.2567C103.852 20.3385 100.731 18.914 97.404 18.0224Z" fill="#1A1A1A"/>
<path d="M64.7628 139.834C79.2176 143.707 94.0753 135.129 97.9484 120.674L45.603 106.648C41.7299 121.103 50.308 135.961 64.7628 139.834Z" fill="url(#paint0_linear_213_28740)"/>
<path d="M91.8027 110.208C86.9595 107.558 81.051 105.193 74.5149 103.442C67.9788 101.691 61.6795 100.784 56.1603 100.658L40.0059 96.3292L36.9476 107.743C34.9639 115.146 48.5672 125.223 67.3314 130.251C86.0956 135.279 102.915 133.353 104.899 125.95L107.957 114.537L91.8027 110.208Z" fill="url(#paint1_linear_213_28740)"/>
<path d="M70.3898 118.837C89.154 123.865 105.973 121.939 107.957 114.536C109.941 107.133 96.3374 97.056 77.5732 92.0282C58.809 87.0003 41.9896 88.9258 40.0059 96.3289C38.0223 103.732 51.6256 113.809 70.3898 118.837Z" fill="url(#paint2_linear_213_28740)"/>
<path opacity="0.5" d="M70.5496 118.24C52.0385 113.28 38.5512 103.406 40.0952 96.0333C40.063 96.1311 40.0324 96.2296 40.0057 96.3293C38.022 103.732 51.6253 113.81 70.3895 118.838C89.1537 123.865 105.973 121.94 107.957 114.537C107.984 114.437 108.006 114.336 108.027 114.236C105.678 121.393 89.0608 123.2 70.5496 118.24Z" fill="white"/>
<path d="M71.7759 113.661C86.2308 117.534 99.0951 116.396 100.509 111.118C101.923 105.841 91.3516 98.4229 76.8967 94.5497C62.4419 90.6766 49.5775 91.8149 48.1635 97.0924C46.7494 102.37 57.321 109.788 71.7759 113.661Z" fill="#C72625"/>
<path d="M72.2253 111.986C85.0025 115.41 96.3446 114.513 97.5585 109.982C98.7724 105.452 89.3984 99.0042 76.6211 95.5806C63.8439 92.1569 52.5018 93.054 51.2879 97.5843C50.074 102.115 59.448 108.563 72.2253 111.986Z" fill="url(#paint3_linear_213_28740)"/>
<path d="M83.8858 70.0448C82.8719 73.902 81.8582 77.7593 80.8444 81.6164C80.7161 82.1047 81.0064 82.6048 81.494 82.7355L91.5356 85.4261C92.2496 85.6175 92.4556 86.5316 91.8926 87.0106L72.894 103.179C72.1545 103.808 71.0723 103.008 71.4576 102.117L76.4559 90.5579C76.6781 90.044 76.3922 89.4528 75.8515 89.3079L66.6109 86.8319C65.9286 86.6491 65.7004 85.7963 66.2 85.297C71.5834 79.9189 76.9669 74.5408 82.3503 69.1626C83.0126 68.5013 84.1237 69.1397 83.8858 70.0448Z" fill="#B5232B"/>
<path opacity="0.2" d="M62.5195 43.52L48.1646 97.0935C46.7505 102.371 57.3221 109.789 71.777 113.662C86.2319 117.535 99.0962 116.397 100.51 111.12L114.865 57.546L62.5195 43.52Z" fill="#C72625"/>
<path opacity="0.5" d="M64.5324 106.083C62.7845 105.595 60.3949 104.727 57.8443 103.126C55.154 101.438 53.265 99.551 52.0494 98.134C54.2447 89.9408 56.44 81.7478 58.6354 73.5546C58.996 72.2089 60.5697 71.5927 61.7327 72.3598C62.792 73.0584 63.9957 73.7662 65.3455 74.4335C67.1742 75.3375 68.9025 75.9849 70.4387 76.4535C71.4903 76.7744 72.0889 77.882 71.8043 78.9442L64.5324 106.083Z" fill="url(#paint4_linear_213_28740)"/>
<path opacity="0.5" d="M96.3878 109.266L91.187 110.044L98.3532 83.2991C98.6436 82.2155 99.643 81.4753 100.764 81.5134C102.315 81.5661 103.413 83.0484 103.011 84.5471L96.3876 109.266L96.3878 109.266Z" fill="url(#paint5_linear_213_28740)"/>
<path d="M64.5979 77.3889C64.1015 78.212 62.6417 78.2418 61.3374 77.4551C60.0331 76.6686 59.3783 75.3635 59.8747 74.5404C60.3711 73.7173 61.8309 73.6875 63.1352 74.4742C64.4395 75.2607 65.0943 76.5656 64.5979 77.3889Z" fill="white"/>
<path d="M68.1698 78.7862C67.8221 79.3626 67.0729 79.5482 66.4963 79.2005C65.9199 78.8528 65.7343 78.1036 66.082 77.5271C66.4297 76.9506 67.1789 76.7651 67.7554 77.1127C68.3319 77.4604 68.5174 78.2096 68.1698 78.7862Z" fill="white"/>
<path d="M106.759 54.3887C101.916 51.7384 96.0078 49.374 89.4717 47.6226C82.9355 45.8713 76.6363 44.9646 71.1171 44.8383L54.9626 40.5098L51.9044 51.9234C49.9207 59.3265 63.524 69.4037 82.2882 74.4316C101.052 79.4594 117.872 77.5339 119.856 70.1308L122.914 58.7172L106.759 54.3887Z" fill="url(#paint6_linear_213_28740)"/>
<path d="M85.3463 63.0182C104.111 68.0461 120.93 66.1206 122.914 58.7175C124.897 51.3144 111.294 41.2372 92.5298 36.2093C73.7656 31.1815 56.9461 33.107 54.9625 40.5101C52.9788 47.9131 66.5821 57.9904 85.3463 63.0182Z" fill="url(#paint7_linear_213_28740)"/>
<path opacity="0.5" d="M85.5376 62.3043C67.0759 57.3575 53.6104 47.5229 55.0703 40.1563C55.0307 40.2728 54.9945 40.3906 54.9625 40.5098C52.9789 47.9129 66.5821 57.9902 85.3464 63.018C104.111 68.0459 120.93 66.1204 122.914 58.7173C122.946 58.598 122.973 58.4779 122.997 58.3573C120.578 65.4667 103.999 67.2512 85.5376 62.3043Z" fill="white"/>
<path d="M115.643 54.6351C119.516 40.1807 110.938 25.3234 96.4835 21.4503C82.0292 17.5773 67.1716 26.155 63.2981 40.6092C63.298 40.6095 63.2979 40.6098 63.2978 40.6101C61.8837 45.8875 72.4553 53.3055 86.9101 57.1786C101.365 61.0518 114.229 59.9133 115.643 54.636C115.643 54.6357 115.643 54.6354 115.643 54.6351Z" fill="url(#paint8_linear_213_28740)"/>
<path opacity="0.5" d="M96.0445 23.0888C110.098 26.8543 118.592 41.0019 115.495 55.0679C115.552 54.9269 115.604 54.7836 115.643 54.636C115.643 54.6357 115.643 54.6354 115.643 54.6351C119.516 40.1807 110.938 25.3234 96.4835 21.4503C82.0292 17.5773 67.1716 26.155 63.2981 40.6092C63.298 40.6095 63.2979 40.6098 63.2978 40.6101C63.2584 40.7572 63.2316 40.9065 63.2105 41.0568C67.562 27.3274 81.9922 19.3235 96.0445 23.0888Z" fill="white"/>
<path opacity="0.5" d="M110.314 39.8363C112.056 37.8933 110.769 33.8965 107.438 30.9093C104.107 27.9221 99.9939 27.0756 98.2513 29.0187C96.5088 30.9618 97.7965 34.9586 101.128 37.9458C104.459 40.933 108.571 41.7794 110.314 39.8363Z" fill="white"/>
<path opacity="0.5" d="M95.502 27.989C96.488 26.956 96.4499 25.3194 95.4169 24.3334C94.384 23.3474 92.7473 23.3855 91.7613 24.4185C90.7754 25.4514 90.8135 27.0881 91.8464 28.0741C92.8794 29.0601 94.5161 29.022 95.502 27.989Z" fill="white"/>
<path opacity="0.1" d="M66.403 44.5601C67.3932 44.8254 68.4111 44.2377 68.6764 43.2475C68.9418 42.2572 68.3541 41.2393 67.3638 40.974C66.3736 40.7086 65.3557 41.2963 65.0904 42.2866C64.825 43.2769 65.4127 44.2947 66.403 44.5601Z" fill="black"/>
<path opacity="0.1" d="M70.5477 46.4885C70.3953 47.0575 69.8105 47.3951 69.2415 47.2426C68.6727 47.0902 68.3349 46.5054 68.4874 45.9364C68.6399 45.3674 69.2246 45.0298 69.7936 45.1823C70.3626 45.3347 70.7002 45.9195 70.5477 46.4885Z" fill="black"/>
<defs>
<linearGradient id="paint0_linear_213_28740" x1="64.7628" y1="139.834" x2="71.7758" y2="113.661" gradientUnits="userSpaceOnUse">
<stop offset="0.4777" stop-color="#994300"/>
<stop offset="0.6299" stop-color="#9E4800"/>
<stop offset="0.8206" stop-color="#AB5800"/>
<stop offset="1" stop-color="#BE6D00"/>
</linearGradient>
<linearGradient id="paint1_linear_213_28740" x1="36.9476" y1="107.743" x2="104.899" y2="125.95" gradientUnits="userSpaceOnUse">
<stop stop-color="#FFF57F"/>
<stop offset="0.0281" stop-color="#F6E36E"/>
<stop offset="0.0868" stop-color="#E7C451"/>
<stop offset="0.1533" stop-color="#DAA837"/>
<stop offset="0.2285" stop-color="#D09223"/>
<stop offset="0.3163" stop-color="#C88113"/>
<stop offset="0.4249" stop-color="#C27608"/>
<stop offset="0.5772" stop-color="#BF6F02"/>
<stop offset="1" stop-color="#BE6D00"/>
</linearGradient>
<linearGradient id="paint2_linear_213_28740" x1="70.3899" y1="118.837" x2="77.5733" y2="92.0281" gradientUnits="userSpaceOnUse">
<stop stop-color="#FFF57F"/>
<stop offset="0.025" stop-color="#FBED78"/>
<stop offset="0.1698" stop-color="#E9C653"/>
<stop offset="0.3197" stop-color="#D9A635"/>
<stop offset="0.4738" stop-color="#CD8D1E"/>
<stop offset="0.634" stop-color="#C57B0D"/>
<stop offset="0.8039" stop-color="#C07003"/>
<stop offset="1" stop-color="#BE6D00"/>
</linearGradient>
<linearGradient id="paint3_linear_213_28740" x1="72.2253" y1="111.986" x2="76.6211" y2="95.5806" gradientUnits="userSpaceOnUse">
<stop offset="0.1295" stop-color="#BE6D00"/>
<stop offset="0.2609" stop-color="#C07205"/>
<stop offset="0.4146" stop-color="#C78012"/>
<stop offset="0.5796" stop-color="#D29828"/>
<stop offset="0.7524" stop-color="#E2B846"/>
<stop offset="0.9297" stop-color="#F6E26D"/>
<stop offset="1" stop-color="#FFF57F"/>
</linearGradient>
<linearGradient id="paint4_linear_213_28740" x1="55.7219" y1="102.352" x2="68.2927" y2="75.3941" gradientUnits="userSpaceOnUse">
<stop stop-color="white"/>
<stop offset="0.7188" stop-color="white"/>
</linearGradient>
<linearGradient id="paint5_linear_213_28740" x1="90.9786" y1="109.947" x2="103.699" y2="82.6678" gradientUnits="userSpaceOnUse">
<stop stop-color="white"/>
<stop offset="0.7188" stop-color="white"/>
</linearGradient>
<linearGradient id="paint6_linear_213_28740" x1="51.9043" y1="51.9235" x2="119.856" y2="70.131" gradientUnits="userSpaceOnUse">
<stop stop-color="#FFF57F"/>
<stop offset="0.0206" stop-color="#FAEA74"/>
<stop offset="0.0904" stop-color="#EAC855"/>
<stop offset="0.1683" stop-color="#DCAC3B"/>
<stop offset="0.2549" stop-color="#D19525"/>
<stop offset="0.3541" stop-color="#C88314"/>
<stop offset="0.4731" stop-color="#C27609"/>
<stop offset="0.6325" stop-color="#BF6F02"/>
<stop offset="1" stop-color="#BE6D00"/>
</linearGradient>
<linearGradient id="paint7_linear_213_28740" x1="85.3464" y1="63.0183" x2="92.5298" y2="36.2094" gradientUnits="userSpaceOnUse">
<stop stop-color="#FFF57F"/>
<stop offset="0.025" stop-color="#FBED78"/>
<stop offset="0.1698" stop-color="#E9C653"/>
<stop offset="0.3197" stop-color="#D9A635"/>
<stop offset="0.4738" stop-color="#CD8D1E"/>
<stop offset="0.634" stop-color="#C57B0D"/>
<stop offset="0.8039" stop-color="#C07003"/>
<stop offset="1" stop-color="#BE6D00"/>
</linearGradient>
<linearGradient id="paint8_linear_213_28740" x1="86.9102" y1="57.1787" x2="96.4836" y2="21.4503" gradientUnits="userSpaceOnUse">
<stop stop-color="#BE6D00"/>
<stop offset="0.1339" stop-color="#C27407"/>
<stop offset="0.3344" stop-color="#CB891A"/>
<stop offset="0.5767" stop-color="#DBAA39"/>
<stop offset="0.8493" stop-color="#F1D864"/>
<stop offset="1" stop-color="#FFF57F"/>
</linearGradient>
</defs>
</svg>
