<svg width="161" height="161" viewBox="0 0 161 161" fill="none" xmlns="http://www.w3.org/2000/svg">
<path d="M96.3065 17.609C108.278 20.8168 116.191 31.599 116.286 43.4178C121.065 47.2329 123.522 51.2496 122.601 54.6868C122.601 54.6877 122.601 54.6885 122.601 54.6894L119.559 66.0425C118.693 69.2746 114.984 71.4568 109.517 72.466L102.236 99.6384C106.466 103.246 108.587 106.99 107.721 110.222C107.72 110.223 107.72 110.224 107.72 110.225L104.678 121.578C103.617 125.537 98.2912 127.92 90.6941 128.502C84.107 135.015 74.3401 137.962 64.7469 135.391C55.1536 132.821 48.169 125.385 45.7205 116.451C39.4321 112.149 36.0114 107.422 37.0722 103.463L40.1149 92.1073C40.9809 88.8752 44.6898 86.6929 50.1565 85.6837L57.4373 58.5113C53.2075 54.9039 51.0868 51.1596 51.9528 47.9276L54.9956 36.5719C55.9166 33.1347 60.053 30.8848 66.0998 29.9705C72.0914 19.7824 84.3348 14.4011 96.3065 17.609ZM97.2206 14.1978C93.9101 13.3107 90.5126 12.9858 87.1228 13.2323C83.8462 13.4705 80.6419 14.2362 77.5989 15.508C74.5896 16.7657 71.8146 18.4861 69.3511 20.6211C67.2713 22.4235 65.4572 24.4843 63.9429 26.7625C61.1471 27.3175 58.7671 28.1589 56.852 29.2712C53.3712 31.2929 52.0662 33.8601 51.5846 35.6578L48.5418 47.0134C47.8889 49.4501 48.2773 52.12 49.665 54.7342C50.5409 56.3844 51.8173 58.0376 53.4717 59.6671L47.3001 82.6998C45.0526 83.2838 43.1206 84.0774 41.5369 85.0685C39.0279 86.6387 37.3567 88.7567 36.7039 91.1933L33.6611 102.549C32.2761 107.718 35.4757 113.399 42.6856 118.633C44.1479 123.193 46.6736 127.373 50.0401 130.787C53.8277 134.628 58.5972 137.399 63.8331 138.802C69.0689 140.205 74.5852 140.19 79.7857 138.757C84.4079 137.484 88.6854 135.127 92.2321 131.908C101.093 130.981 106.704 127.661 108.089 122.492L111.131 111.139C111.785 108.7 111.396 106.03 110.009 103.415C109.133 101.765 107.856 100.112 106.202 98.4824L112.374 75.4497C114.621 74.8656 116.553 74.0722 118.137 73.081C120.646 71.5107 122.317 69.3928 122.97 66.9562L126.012 55.6031C126.494 53.8029 126.648 50.927 124.644 47.4359C123.542 45.5151 121.901 43.5964 119.758 41.7179C119.585 38.9877 119.045 36.296 118.145 33.6952C117.079 30.6144 115.536 27.7371 113.559 25.1432C111.559 22.5201 109.167 20.2549 106.448 18.4104C103.636 16.5021 100.531 15.0848 97.2206 14.1978Z" fill="#1A1A1A"/>
<path d="M64.7467 135.391C79.128 139.245 93.9103 130.71 97.7637 116.329L45.6843 102.374C41.8309 116.755 50.3654 131.538 64.7467 135.391Z" fill="url(#paint0_linear_213_28907)"/>
<path d="M91.6482 105.916C86.8296 103.279 80.9511 100.926 74.4482 99.1841C67.9453 97.4416 61.678 96.5395 56.1869 96.4137L40.1146 92.1072L37.0718 103.463C35.0983 110.828 48.6324 120.854 67.3013 125.857C85.9701 130.859 102.704 128.943 104.678 121.578L107.72 110.222L91.6482 105.916Z" fill="url(#paint1_linear_213_28907)"/>
<path d="M70.3442 114.501C89.0131 119.503 105.747 117.588 107.721 110.222C109.694 102.857 96.16 92.8306 77.4912 87.8283C58.8223 82.826 42.0883 84.7417 40.1148 92.1072C38.1412 99.4727 51.6754 109.499 70.3442 114.501Z" fill="url(#paint2_linear_213_28907)"/>
<path opacity="0.5" d="M70.5034 113.907C52.0864 108.972 38.6676 99.1481 40.2038 91.8126C40.1718 91.9099 40.1413 92.008 40.1147 92.1072C38.1412 99.4726 51.6753 109.499 70.3442 114.501C89.0131 119.503 105.747 117.588 107.721 110.222C107.747 110.123 107.77 110.023 107.791 109.923C105.453 117.043 88.9206 118.842 70.5034 113.907Z" fill="white"/>
<path d="M71.7241 109.351C86.1055 113.205 98.9045 112.072 100.311 106.822C101.718 101.571 91.2003 94.1906 76.8189 90.3371C62.4375 86.4836 49.6385 87.6162 48.2316 92.8668C46.8248 98.1174 57.3427 105.498 71.7241 109.351Z" fill="#FF0009"/>
<path d="M72.1708 107.684C84.8832 111.091 96.1676 110.198 97.3753 105.691C98.583 101.183 89.2567 94.7683 76.5444 91.362C63.832 87.9558 52.5476 88.8483 51.3398 93.3556C50.1321 97.8629 59.4585 104.278 72.1708 107.684Z" fill="url(#paint3_linear_213_28907)"/>
<path d="M61.3588 96.1316C61.2748 96.4453 61.1434 96.6537 60.9658 96.7563C60.7876 96.8591 60.5416 96.8683 60.2283 96.7843L56.4637 95.7756C56.15 95.6916 55.9415 95.5606 55.8391 95.3826C55.7361 95.2048 55.727 94.9588 55.811 94.6451L56.521 91.9953C56.7245 91.236 56.9431 90.684 57.1772 90.3393C57.4108 89.995 57.778 89.6157 58.2786 89.2012L61.008 87.0389L59.7252 83.8021C59.4822 83.1887 59.3502 82.6757 59.3283 82.2624C59.306 81.8495 59.3967 81.2633 59.6002 80.5035L60.1112 78.5966C60.1952 78.2832 60.3261 78.0746 60.5042 77.9719C60.6818 77.8694 60.928 77.8598 61.2417 77.9439L65.0559 78.9659C65.3692 79.0498 65.5777 79.1812 65.6805 79.3589C65.7829 79.537 65.7925 79.7832 65.7086 80.0964L65.2506 81.8055C65.2064 81.9705 65.1677 82.1459 65.1359 82.3318C65.1035 82.518 65.123 82.7092 65.1948 82.9051L65.8666 84.7575C65.9134 84.9118 65.9724 85.0378 66.0437 85.1368C66.1144 85.2351 66.2157 85.3024 66.348 85.3378L66.6453 85.4175C66.7772 85.4528 66.894 85.4442 66.9971 85.3922C67.0994 85.3398 67.2179 85.2613 67.3524 85.1556L68.8849 83.8938C69.0446 83.7602 69.157 83.6041 69.2226 83.4268C69.2872 83.2497 69.3422 83.0787 69.3864 82.9137L69.8444 81.2045C69.9283 80.8912 70.0593 80.6826 70.2374 80.5799C70.415 80.4774 70.6612 80.4678 70.9749 80.5519L74.7395 81.5606C75.0529 81.6446 75.2613 81.7759 75.3641 81.9536C75.4666 82.1317 75.4761 82.3779 75.3922 82.6911L74.8812 84.598C74.6777 85.3578 74.4587 85.9097 74.225 86.254C73.9909 86.5987 73.6237 86.9778 73.1237 87.3922L70.3877 89.579L71.677 92.7913C71.9195 93.4049 72.0519 93.9181 72.074 94.3309C72.0959 94.7442 72.0055 95.3305 71.802 96.0898L71.092 98.7396C71.008 99.0533 70.8766 99.2617 70.699 99.3643C70.5208 99.4671 70.2747 99.4763 69.9615 99.3923L66.1969 98.3836C65.8832 98.2996 65.6747 98.1686 65.5722 97.9905C65.4692 97.8128 65.4601 97.5668 65.5442 97.2531L66.2012 94.8011C66.2453 94.6365 66.2832 94.4609 66.3159 94.2748C66.3478 94.0885 66.3283 93.8975 66.257 93.7015L65.5852 91.8491C65.526 91.674 65.4638 91.5422 65.3991 91.4543C65.334 91.3661 65.2356 91.3043 65.1038 91.2689L64.7569 91.176C64.6246 91.1406 64.5088 91.1451 64.4084 91.1888C64.308 91.2326 64.1887 91.3157 64.0498 91.4377L62.5173 92.6995C62.3571 92.8335 62.2448 92.9891 62.1796 93.1665C62.1146 93.344 62.06 93.5151 62.0158 93.6797L61.3588 96.1316Z" fill="black"/>
<path d="M91.3514 105.124L74.5966 100.634C74.1502 100.515 73.8544 100.329 73.7087 100.076C73.5624 99.8233 73.5495 99.4735 73.669 99.0276L75.2912 92.9733C75.6557 91.613 76.0906 90.5279 76.5964 89.7202C77.1017 88.9123 77.6769 88.2935 78.3208 87.862C78.9641 87.4312 79.6698 87.1423 80.4389 86.996C81.2073 86.85 82.022 86.7665 82.883 86.7456L87.9957 86.5309C88.3955 86.5383 88.6859 86.465 88.8655 86.3117C89.0446 86.1582 89.185 85.8945 89.2858 85.5184C89.38 85.1669 89.3739 84.9075 89.2677 84.7407C89.1614 84.5742 88.9325 84.4431 88.5804 84.3488L80.9423 82.3022C80.4959 82.1825 80.2001 81.9966 80.0544 81.7436C79.9081 81.4911 79.8951 81.1413 80.0146 80.6954L81.1181 76.5771C81.2374 76.1318 81.4235 75.8355 81.6767 75.6892C81.929 75.5435 82.2783 75.5298 82.7249 75.6495L93.1087 78.4318C95.1029 78.9662 96.5001 79.8751 97.3011 81.1584C98.1014 82.4422 98.247 84.0339 97.7377 85.9345L96.8512 89.243C96.3796 91.0033 95.5254 92.2211 94.2886 92.8954C93.0511 93.5695 91.5189 93.9394 89.6909 94.0024L84.4983 94.2331C84.1209 94.233 83.8516 94.2738 83.6917 94.3564C83.5309 94.4393 83.4009 94.669 83.3005 95.0438L83.1024 95.7831L93.1339 98.4711C93.5793 98.5904 93.8754 98.777 94.0218 99.0296C94.1674 99.2826 94.1809 99.6325 94.0616 100.078L92.9581 104.196C92.8387 104.642 92.652 104.938 92.3996 105.084C92.1463 105.23 91.7966 105.243 91.3514 105.124Z" fill="black"/>
<path opacity="0.2" d="M62.5137 39.5655L48.2316 92.8668C46.8247 98.1174 57.3426 105.498 71.7241 109.351C86.1056 113.205 98.9044 112.072 100.311 106.821L114.593 53.5202L62.5137 39.5655Z" fill="#C72625"/>
<path opacity="0.5" d="M64.5159 101.811C62.7768 101.325 60.3994 100.462 57.8617 98.8691C55.1851 97.1896 53.3057 95.3121 52.0963 93.9022C54.2805 85.7507 56.4647 77.5992 58.6489 69.4477C59.0076 68.1088 60.5734 67.4958 61.7304 68.2589C62.7843 68.954 63.9819 69.6582 65.3248 70.3221C67.1442 71.2215 68.8638 71.8656 70.3921 72.3319C71.4385 72.6511 72.034 73.7531 71.7508 74.8099L64.5159 101.811Z" fill="url(#paint4_linear_213_28907)"/>
<path opacity="0.5" d="M96.209 104.977L91.0347 105.751L98.1645 79.1424C98.4534 78.0644 99.4477 77.3279 100.563 77.3658C102.106 77.4183 103.198 78.893 102.799 80.3841L96.2089 104.977L96.209 104.977Z" fill="url(#paint5_linear_213_28907)"/>
<path d="M64.581 73.262C64.0871 74.081 62.6347 74.1106 61.3371 73.3279C60.0394 72.5452 59.3879 71.2469 59.8818 70.428C60.3756 69.609 61.828 69.5794 63.1257 70.3621C64.4234 71.1447 65.0748 72.4431 64.581 73.262Z" fill="white"/>
<path d="M67.3662 75.2042C68.0194 75.0557 68.4285 74.4058 68.28 73.7526C68.1316 73.0994 67.4817 72.6903 66.8285 72.8388C66.1753 72.9873 65.7661 73.6372 65.9146 74.2904C66.0631 74.9436 66.713 75.3527 67.3662 75.2042Z" fill="white"/>
<path d="M106.529 50.3799C101.71 47.743 95.8319 45.3908 89.329 43.6483C82.8261 41.9059 76.5589 41.0038 71.0678 40.878L54.9954 36.5715L51.9527 47.9272C49.9791 55.2927 63.5133 65.3187 82.1821 70.321C100.851 75.3234 117.585 73.4076 119.559 66.0422L122.601 54.6864L106.529 50.3799Z" fill="url(#paint6_linear_213_28907)"/>
<path d="M85.2248 58.9655C103.894 63.9678 120.628 62.052 122.601 54.6866C124.575 47.3211 111.041 37.2951 92.3718 32.2928C73.7029 27.2905 56.969 29.2062 54.9954 36.5716C53.0218 43.9371 66.556 53.9632 85.2248 58.9655Z" fill="url(#paint7_linear_213_28907)"/>
<path opacity="0.5" d="M85.4151 58.2554C67.0472 53.3338 53.6501 43.5491 55.1027 36.2198C55.0633 36.3356 55.0273 36.4529 54.9955 36.5715C53.0219 43.937 66.5561 53.963 85.2249 58.9653C103.894 63.9677 120.628 62.0519 122.601 54.6865C122.633 54.5678 122.661 54.4483 122.684 54.3283C120.278 61.4017 103.783 63.1771 85.4151 58.2554Z" fill="white"/>
<path d="M115.369 50.6248C119.222 36.2438 110.687 21.4621 96.3063 17.6087C81.9254 13.7553 67.1433 22.2894 63.2895 36.6702C63.2894 36.6705 63.2894 36.6708 63.2893 36.6711C61.8824 41.9217 72.4002 49.302 86.7816 53.1554C101.163 57.0089 113.962 55.8764 115.369 50.6257C115.369 50.6254 115.369 50.6251 115.369 50.6248Z" fill="url(#paint8_linear_213_28907)"/>
<path opacity="0.5" d="M95.8695 19.2389C109.851 22.9853 118.303 37.0611 115.221 51.0556C115.278 50.9151 115.329 50.7727 115.369 50.6257C115.369 50.6254 115.369 50.6251 115.369 50.6248C119.222 36.2438 110.687 21.4621 96.3063 17.6087C81.9254 13.7553 67.1433 22.2894 63.2895 36.6702C63.2894 36.6705 63.2894 36.6708 63.2893 36.6711C63.2501 36.8174 63.2234 36.966 63.2024 37.1155C67.5318 23.4561 81.8886 15.4928 95.8695 19.2389Z" fill="white"/>
<path opacity="0.5" d="M110.067 35.8968C111.801 33.9636 110.52 29.9871 107.206 27.0151C103.892 24.0431 99.7998 23.2009 98.0661 25.1341C96.3324 27.0673 97.6136 31.0438 100.928 34.0158C104.242 36.9879 108.334 37.83 110.067 35.8968Z" fill="white"/>
<path opacity="0.5" d="M95.3849 24.0562C94.4363 25.114 92.8098 25.2023 91.752 24.2537C90.6942 23.3052 90.6058 21.6787 91.5544 20.6209C92.503 19.5632 94.1295 19.4747 95.1873 20.4233C96.2451 21.3719 96.3335 22.9983 95.3849 24.0562Z" fill="white"/>
<path opacity="0.1" d="M66.3785 40.6011C67.3637 40.8651 68.3764 40.2804 68.6404 39.2952C68.9044 38.3099 68.3197 37.2972 67.3345 37.0332C66.3492 36.7692 65.3365 37.3539 65.0725 38.3392C64.8085 39.3244 65.3932 40.3371 66.3785 40.6011Z" fill="black"/>
<path opacity="0.1" d="M70.5018 42.5195C70.3501 43.0855 69.7683 43.4215 69.2022 43.2698C68.6363 43.1182 68.3002 42.5364 68.4519 41.9702C68.6036 41.4041 69.1854 41.0683 69.7515 41.2199C70.3176 41.3716 70.6535 41.9534 70.5018 42.5195Z" fill="black"/>
<defs>
<linearGradient id="paint0_linear_213_28907" x1="64.7468" y1="135.391" x2="71.7241" y2="109.351" gradientUnits="userSpaceOnUse">
<stop offset="0.4777" stop-color="#994300"/>
<stop offset="0.6299" stop-color="#9E4800"/>
<stop offset="0.8206" stop-color="#AB5800"/>
<stop offset="1" stop-color="#BE6D00"/>
</linearGradient>
<linearGradient id="paint1_linear_213_28907" x1="37.0718" y1="103.463" x2="104.678" y2="121.578" gradientUnits="userSpaceOnUse">
<stop stop-color="#FFF57F"/>
<stop offset="0.0281" stop-color="#F6E36E"/>
<stop offset="0.0868" stop-color="#E7C451"/>
<stop offset="0.1533" stop-color="#DAA837"/>
<stop offset="0.2285" stop-color="#D09223"/>
<stop offset="0.3163" stop-color="#C88113"/>
<stop offset="0.4249" stop-color="#C27608"/>
<stop offset="0.5772" stop-color="#BF6F02"/>
<stop offset="1" stop-color="#BE6D00"/>
</linearGradient>
<linearGradient id="paint2_linear_213_28907" x1="70.3443" y1="114.501" x2="77.4912" y2="87.8283" gradientUnits="userSpaceOnUse">
<stop stop-color="#FFF57F"/>
<stop offset="0.025" stop-color="#FBED78"/>
<stop offset="0.1698" stop-color="#E9C653"/>
<stop offset="0.3197" stop-color="#D9A635"/>
<stop offset="0.4738" stop-color="#CD8D1E"/>
<stop offset="0.634" stop-color="#C57B0D"/>
<stop offset="0.8039" stop-color="#C07003"/>
<stop offset="1" stop-color="#BE6D00"/>
</linearGradient>
<linearGradient id="paint3_linear_213_28907" x1="72.1709" y1="107.684" x2="76.5444" y2="91.3621" gradientUnits="userSpaceOnUse">
<stop offset="0.1295" stop-color="#BE6D00"/>
<stop offset="0.2609" stop-color="#C07205"/>
<stop offset="0.4146" stop-color="#C78012"/>
<stop offset="0.5796" stop-color="#D29828"/>
<stop offset="0.7524" stop-color="#E2B846"/>
<stop offset="0.9297" stop-color="#F6E26D"/>
<stop offset="1" stop-color="#FFF57F"/>
</linearGradient>
<linearGradient id="paint4_linear_213_28907" x1="55.7501" y1="98.0991" x2="68.257" y2="71.278" gradientUnits="userSpaceOnUse">
<stop stop-color="white"/>
<stop offset="0.7188" stop-color="white"/>
</linearGradient>
<linearGradient id="paint5_linear_213_28907" x1="90.8274" y1="105.654" x2="103.483" y2="78.5143" gradientUnits="userSpaceOnUse">
<stop stop-color="white"/>
<stop offset="0.7188" stop-color="white"/>
</linearGradient>
<linearGradient id="paint6_linear_213_28907" x1="51.9527" y1="47.9272" x2="119.559" y2="66.0421" gradientUnits="userSpaceOnUse">
<stop stop-color="#FFF57F"/>
<stop offset="0.0206" stop-color="#FAEA74"/>
<stop offset="0.0904" stop-color="#EAC855"/>
<stop offset="0.1683" stop-color="#DCAC3B"/>
<stop offset="0.2549" stop-color="#D19525"/>
<stop offset="0.3541" stop-color="#C88314"/>
<stop offset="0.4731" stop-color="#C27609"/>
<stop offset="0.6325" stop-color="#BF6F02"/>
<stop offset="1" stop-color="#BE6D00"/>
</linearGradient>
<linearGradient id="paint7_linear_213_28907" x1="85.2249" y1="58.9654" x2="92.3718" y2="32.2927" gradientUnits="userSpaceOnUse">
<stop stop-color="#FFF57F"/>
<stop offset="0.025" stop-color="#FBED78"/>
<stop offset="0.1698" stop-color="#E9C653"/>
<stop offset="0.3197" stop-color="#D9A635"/>
<stop offset="0.4738" stop-color="#CD8D1E"/>
<stop offset="0.634" stop-color="#C57B0D"/>
<stop offset="0.8039" stop-color="#C07003"/>
<stop offset="1" stop-color="#BE6D00"/>
</linearGradient>
<linearGradient id="paint8_linear_213_28907" x1="86.7817" y1="53.1555" x2="96.3064" y2="17.6086" gradientUnits="userSpaceOnUse">
<stop stop-color="#BE6D00"/>
<stop offset="0.1339" stop-color="#C27407"/>
<stop offset="0.3344" stop-color="#CB891A"/>
<stop offset="0.5767" stop-color="#DBAA39"/>
<stop offset="0.8493" stop-color="#F1D864"/>
<stop offset="1" stop-color="#FFF57F"/>
</linearGradient>
</defs>
</svg>
