<svg width="150" height="150" viewBox="0 0 150 150" fill="none" xmlns="http://www.w3.org/2000/svg">
<path d="M113.333 19.4945L115.732 16.0818L115.517 16.3528L115.653 16.0818L99.1989 16.0311L97.7878 19.423L113.333 19.4945Z" fill="#200429"/>
<path d="M115.733 16.0818L113.334 19.4945L113.248 19.6087L113.339 19.4945L120.698 27.3107C120.67 27.331 120.675 27.3371 120.698 27.3361L124.171 25.2631V25.2361L115.733 16.0818Z" fill="#200429"/>
<path d="M116.077 95.9808L118.929 98.1133L124.171 25.2629L120.698 27.3359L116.077 95.9808Z" fill="#200429"/>
<path d="M75.4634 114.097V118.197L118.928 98.1133L116.077 95.9808L75.4634 114.097Z" fill="#200429"/>
<path d="M37.5935 19.4945L35.1943 16.0818L35.4102 16.3528L35.2739 16.0818L115.733 16.0311L113.334 19.423L37.5935 19.4945Z" fill="#140502"/>
<path d="M35.1942 16.0818L37.5932 19.4945L37.6792 19.6087L37.5882 19.4945L30.2285 27.3107C30.257 27.331 30.2514 27.3371 30.2285 27.3361L26.7559 25.2631V25.2361L35.1942 16.0818Z" fill="#3B0F06"/>
<path d="M34.8499 95.9808L31.9985 98.1133L26.7561 25.2629L30.2287 27.3359L34.8499 95.9808Z" fill="#140502"/>
<path d="M75.4635 114.097V118.197L31.9985 98.1133L34.8499 95.9808L75.4635 114.097Z" fill="#140502"/>
<path d="M115.733 16.0818L113.334 19.4945L113.248 19.6087L113.339 19.4945L120.698 27.3107C120.67 27.331 120.675 27.3371 120.698 27.3361L124.171 25.2631V25.2361L115.733 16.0818Z" fill="#140502"/>
<path d="M116.077 95.9808L118.928 98.1133L124.171 25.2629L120.698 27.3359L116.077 95.9808Z" fill="#140502"/>
<path d="M75.4634 114.097V118.197L118.928 98.1133L116.077 95.9808L75.4634 114.097Z" fill="#140502"/>
<path d="M131.268 21.684L135.206 25.263L129.978 112.834L125.262 104.095L131.268 21.684Z" fill="#734C35"/>
<path d="M26.756 25.236L35.3164 15.9804H35.396L31.6584 12.1874L21.8093 23.4307C21.8093 23.4307 26.4361 25.248 26.7561 25.2628V25.236H26.756Z" fill="#D98E50"/>
<path d="M26.7561 25.2629C26.4361 25.2481 21.8093 23.4308 21.8093 23.4308L27.584 101.122L31.9984 98.1132L26.7561 25.2629Z" fill="#E0A06C"/>
<path d="M115.733 16.0817L124.171 25.236V25.2627C124.491 25.2479 129.118 23.4306 129.118 23.4306L119.269 12.1873L115.653 16.0817H115.733Z" fill="#7A351F"/>
<path d="M21.8094 23.4307L19.6589 21.684L25.6652 104.095L27.5841 101.122L21.8094 23.4307Z" fill="#452B14"/>
<path d="M123.343 101.122L125.262 104.095L131.268 21.684L129.118 23.4307L123.343 101.122Z" fill="#D98E50"/>
<path d="M31.6584 12.1874L29.875 9.82532L19.6589 21.6839L21.8094 23.4306L31.6584 12.1874Z" fill="#452B14"/>
<path d="M129.118 23.4306L131.268 21.6839L121.052 9.82532L119.269 12.1874L129.118 23.4306Z" fill="#E0A06C"/>
<path d="M75.4634 127.105V139.52L129.978 112.834L125.262 104.095L75.4634 127.105Z" fill="#6B3318"/>
<path d="M75.4634 123.246V127.105L125.262 104.095L123.343 101.122L75.4634 123.246Z" fill="#A6562B"/>
<path d="M118.928 98.1133L75.4634 118.197V123.246L123.343 101.122L118.928 98.1133Z" fill="#D98E50"/>
<path d="M25.6652 104.095L20.9485 112.834L75.4634 139.52V127.105L25.6652 104.095Z" fill="#4F260D"/>
<path d="M75.4636 123.246L27.5841 101.122L25.6653 104.095L75.4636 127.105V123.246Z" fill="#5C3719"/>
<path d="M31.9984 98.1133L27.584 101.122L75.4634 123.246V118.197L31.9984 98.1133Z" fill="#915836"/>
<path d="M19.6589 21.684L15.7205 25.263L20.9485 112.834L25.6652 104.095L19.6589 21.684Z" fill="#8F5626"/>
<path d="M118.928 98.1132L123.343 101.122L129.118 23.4308C129.118 23.4308 124.491 25.2481 124.171 25.2629L118.928 98.1132Z" fill="#7A361F"/>
<path d="M29.875 9.82532L31.6584 12.1874H119.268L121.052 9.82532H29.875Z" fill="#D98E50"/>
<path d="M31.6584 12.1874L35.3961 15.9804L115.733 16.0311L119.268 12.1874H31.6584Z" fill="#7A361F"/>
<path d="M15.7205 25.2629L29.875 9.82532L19.6589 21.6839L15.7205 25.2629Z" fill="#7A361F"/>
<path d="M135.207 25.2629L131.268 21.6839L121.052 9.82532L135.207 25.2629Z" fill="#E0A06C"/>
<path d="M75.4639 19.399V108.711L111.681 91.9759L116.838 28.46L111.046 22.0602H95.6258L75.4639 19.399Z" fill="url(#paint0_linear_213_31507)"/>
<path d="M39.8824 22.0601L34.0898 28.4599L39.2466 91.9759L75.4639 108.711V19.4918L55.302 22.0601H39.8824Z" fill="url(#paint1_linear_213_31507)"/>
<path d="M34.0894 28.4599L30.2288 27.3107C30.2572 27.3309 30.2517 27.3369 30.2288 27.3359L34.8499 95.9808L39.2462 91.9761L34.0894 28.4599Z" fill="#471711"/>
<path d="M39.882 22.0602L37.7034 19.399L30.2288 27.3107L34.0894 28.46L39.882 22.0602Z" fill="#AB6834"/>
<path d="M120.698 27.3107L116.837 28.4599L111.681 91.9759L116.077 95.9807L120.698 27.3357C120.675 27.3369 120.67 27.3309 120.698 27.3107Z" fill="#AB6834"/>
<path d="M113.136 19.7492V19.749L111.045 22.0601L116.838 28.4599L120.698 27.3106L113.339 19.4943L113.136 19.749V19.7492Z" fill="#C47F5C"/>
<path d="M37.7031 19.399L37.9097 19.6564L39.885 22.0566H111.045L113.333 19.423L37.7031 19.399Z" fill="#C47F5C"/>
<path d="M75.4634 108.711V114.097L116.077 95.9806L111.681 91.9758L75.4634 108.711Z" fill="#471711"/>
<path d="M39.2462 91.9758L34.8499 95.9806L75.4635 114.097V108.711L39.2462 91.9758Z" fill="#2E0F0B"/>
<path d="M107.403 54.397L101.397 55.7595V55.7481L73.9434 69.1983L73.9198 69.1869V70.4411L73.9152 70.4393V69.1871L73.8916 69.1985L54.5918 62.5044V62.5158L54.9086 63.368L43.309 54.3971L42.2261 57.8178L43.5403 68.1924L75.3322 82.0805H75.3441L75.356 80.9283L75.3679 82.0805H75.3798L107.235 67.6795L108.487 57.8198L107.403 54.397Z" fill="#140502"/>
<path d="M107.402 54.397L106.088 65.3977L75.3783 79.7987H75.3669L75.3555 78.6464V67.5995L75.3783 68.7517L107.402 54.397Z" fill="#6B3318"/>
<path d="M106.449 50.9745L107.402 54.3969L75.3782 68.8201L75.3554 67.6679L73.9216 67.1991L73.9444 68.3513L106.449 50.9745Z" fill="#A82B01"/>
<path d="M43.3088 54.397L44.6849 65.9106L75.3328 79.7987H75.3442L75.3556 78.6464V67.5995L75.3328 68.7517L43.3088 54.397Z" fill="#4F260D"/>
<path d="M44.2736 50.986L43.3088 54.397L75.3328 68.8202L75.3556 67.668L73.9218 67.1992L73.899 68.3514L44.2736 50.986Z" fill="#8C1505"/>
<path d="M106.449 50.9745L104.956 64.9872L75.3783 77.5168H75.3669L75.3555 77.5054V65.3178L75.3783 65.3292L106.449 50.9745Z" fill="#D98E50"/>
<path d="M75.3554 65.3178V77.5054L75.3327 77.5168L45.766 64.9872L44.2734 50.9859V50.9745L75.3327 65.3292L75.3554 65.3178Z" fill="#A6562B"/>
<path d="M106.456 50.8376V50.849L106.445 50.9745L106.331 52.0461L75.3511 66.458V65.2036L75.374 64.0742L106.456 50.8376Z" fill="#E0A06C"/>
<path d="M44.3135 50.8376V50.849L44.3249 50.9745L44.4388 52.0461L75.4183 66.458V64.0628L75.3955 64.0742L44.3135 50.8376Z" fill="#E0A06C"/>
<defs>
<linearGradient id="paint0_linear_213_31507" x1="96.1509" y1="24.0908" x2="96.1509" y2="95.8527" gradientUnits="userSpaceOnUse">
<stop stop-color="#854A30"/>
<stop offset="1" stop-color="#5D2E16"/>
</linearGradient>
<linearGradient id="paint1_linear_213_31507" x1="54.7769" y1="24.1788" x2="54.7769" y2="95.866" gradientUnits="userSpaceOnUse">
<stop stop-color="#854A30"/>
<stop offset="1" stop-color="#5D2E16"/>
</linearGradient>
</defs>
</svg>
