<svg width="319" height="319" viewBox="0 0 319 319" fill="none" xmlns="http://www.w3.org/2000/svg">
<path d="M275.95 104.348V152.119L275.381 151.788V171.306V197.6V217.118V237.262L243.861 219.452V198.921V179.403V153.109V133.591V112.775V112.115V85.8209L221.086 72.6798V98.9734V99.6225V120.439V139.957V166.25V185.768V206.573L189.565 188.763V167.571V148.053V121.76V102.242L188.996 101.911V54.1525L166.221 41V88.7703V108.277V134.571V154.1V202.383L188.996 215.251L221.086 233.391L243.861 246.27L275.95 264.41L298.725 277.278V230.601V211.083V184.778V165.26V117.501L275.95 104.348Z" fill="white"/>
<path d="M131.729 54.1525L99.6395 72.6798L76.8646 85.8209L44.7749 104.348L22 117.501V169.632V189.151V215.444V234.962V277.278L44.7749 264.41V221.81V202.303L76.8646 183.776L99.6395 170.623L131.729 152.096V125.791L99.6395 144.318L76.8646 157.471L44.7749 175.998V156.48V130.653L76.8646 112.126L99.6395 98.9848L131.729 80.4575V106.284L154.504 93.1317V41L131.729 54.1525Z" fill="white"/>
</svg>
