<svg width="24" height="25" viewBox="0 0 24 25" fill="none" xmlns="http://www.w3.org/2000/svg">
<path d="M19.1999 14.0764C20.4672 15.0233 21.5999 17.4074 21.5999 18.8764C21.5999 19.334 21.266 19.705 20.8541 19.705H20.3999M15.5999 10.1952C16.4197 9.72093 16.9713 8.83452 16.9713 7.81927C16.9713 6.80403 16.4197 5.91761 15.5999 5.44336M3.14567 19.705H16.2827C16.6946 19.705 17.0285 19.334 17.0285 18.8764C17.0285 15.9997 14.6252 13.6678 9.71419 13.6678C4.80317 13.6678 2.3999 15.9997 2.3999 18.8764C2.3999 19.334 2.7338 19.705 3.14567 19.705ZM12.457 7.81927C12.457 9.33411 11.229 10.5621 9.71419 10.5621C8.19935 10.5621 6.97133 9.33411 6.97133 7.81927C6.97133 6.30443 8.19935 5.07642 9.71419 5.07642C11.229 5.07642 12.457 6.30443 12.457 7.81927Z" stroke="#989898" stroke-width="2" stroke-linecap="round"/>
</svg>
