<svg width="24" height="25" viewBox="0 0 24 25" fill="none" xmlns="http://www.w3.org/2000/svg">
<path d="M10.2003 8.19058C10.746 5.78579 12.8966 3.99058 15.4665 3.99058C18.4488 3.99058 20.8665 6.40824 20.8665 9.39058C20.8665 12.1531 18.7921 14.4311 16.116 14.7519M6.60029 6.39058L9.00029 3.99058L6.60029 1.59058M1.80029 8.79058V7.19058C1.80029 5.42326 3.23298 3.99058 5.00029 3.99058H7.40029M17.4003 18.3906L15.0003 20.7906L17.4003 23.1906M22.2003 15.9906V17.5906C22.2003 19.3579 20.7676 20.7906 19.0003 20.7906H16.6003M12.6003 16.5906C12.6003 19.5729 10.1826 21.9906 7.20029 21.9906C4.21796 21.9906 1.80029 19.5729 1.80029 16.5906C1.80029 13.6082 4.21796 11.1906 7.20029 11.1906C10.1826 11.1906 12.6003 13.6082 12.6003 16.5906Z" stroke="#989898" stroke-width="2" stroke-linecap="round" stroke-linejoin="round"/>
</svg>
