<svg width="24" height="25" viewBox="0 0 24 25" fill="none" xmlns="http://www.w3.org/2000/svg">
<path d="M21.6001 16.9505V17.9505C22.1524 17.9505 22.6001 17.5028 22.6001 16.9505H21.6001ZM21.6001 11.6705H22.6001C22.6001 11.1182 22.1524 10.6705 21.6001 10.6705V11.6705ZM7.13939 6.50934C6.67482 6.80799 6.54032 7.42671 6.83897 7.89128C7.13762 8.35585 7.75633 8.49035 8.2209 8.1917L7.13939 6.50934ZM14.4001 3.03052L15.1895 2.41658C14.8717 2.00803 14.2948 1.90946 13.8594 2.18934L14.4001 3.03052ZM16.9708 7.96446C17.3099 8.40041 17.9381 8.47894 18.3741 8.13987C18.81 7.8008 18.8886 7.17253 18.5495 6.73658L16.9708 7.96446ZM21.6001 15.9505H18.4801V17.9505H21.6001V15.9505ZM18.4801 12.6705H21.6001V10.6705H18.4801V12.6705ZM20.6001 11.6705V16.9505H22.6001V11.6705H20.6001ZM16.8401 14.3105C16.8401 13.4048 17.5744 12.6705 18.4801 12.6705V10.6705C16.4698 10.6705 14.8401 12.3002 14.8401 14.3105H16.8401ZM18.4801 15.9505C17.5744 15.9505 16.8401 15.2163 16.8401 14.3105H14.8401C14.8401 16.3208 16.4698 17.9505 18.4801 17.9505V15.9505ZM8.2209 8.1917L14.9409 3.8717L13.8594 2.18934L7.13939 6.50934L8.2209 8.1917ZM13.6108 3.64446L16.9708 7.96446L18.5495 6.73658L15.1895 2.41658L13.6108 3.64446ZM3.36015 8.35052H19.6801V6.35052H3.36015V8.35052ZM19.6801 20.7505H3.36015V22.7505H19.6801V20.7505ZM3.40015 20.7905V8.31052H1.40015V20.7905H3.40015ZM3.36015 20.7505C3.38224 20.7505 3.40015 20.7684 3.40015 20.7905H1.40015C1.40015 21.873 2.27767 22.7505 3.36015 22.7505V20.7505ZM19.6401 20.7905C19.6401 20.7684 19.6581 20.7505 19.6801 20.7505V22.7505C20.7626 22.7505 21.6401 21.873 21.6401 20.7905H19.6401ZM19.6801 8.35052C19.6581 8.35052 19.6401 8.33261 19.6401 8.31052H21.6401C21.6401 7.22804 20.7626 6.35052 19.6801 6.35052V8.35052ZM3.36015 6.35052C2.27767 6.35052 1.40015 7.22804 1.40015 8.31052H3.40015C3.40015 8.33261 3.38224 8.35052 3.36015 8.35052V6.35052ZM19.6401 17.6705V20.7905H21.6401V17.6705H19.6401ZM19.6401 8.31052V10.8305H21.6401V8.31052H19.6401Z" fill="#989898"/>
</svg>
